<?xml version="1.0" encoding="UTF-8" standalone="no"?>
<svg
   xmlns:dc="http://purl.org/dc/elements/1.1/"
   xmlns:cc="http://creativecommons.org/ns#"
   xmlns:rdf="http://www.w3.org/1999/02/22-rdf-syntax-ns#"
   xmlns:svg="http://www.w3.org/2000/svg"
   xmlns="http://www.w3.org/2000/svg"
   xmlns:sodipodi="http://sodipodi.sourceforge.net/DTD/sodipodi-0.dtd"
   xmlns:inkscape="http://www.inkscape.org/namespaces/inkscape"
   version="1.1"
   id="svg2"
   xml:space="preserve"
   width="384"
   height="384"
   viewBox="0 0 384 384"
   sodipodi:docname="Migobucks Logo_Vertical.ai"><metadata
     id="metadata8"><rdf:RDF><cc:Work
         rdf:about=""><dc:format>image/svg+xml</dc:format><dc:type
           rdf:resource="http://purl.org/dc/dcmitype/StillImage" /></cc:Work></rdf:RDF></metadata><defs
     id="defs6"><clipPath
       clipPathUnits="userSpaceOnUse"
       id="clipPath18"><path
         d="M 0,288 H 288 V 0 H 0 Z"
         id="path16" /></clipPath><clipPath
       clipPathUnits="userSpaceOnUse"
       id="clipPath202"><path
         d="M 0,288 H 288 V 0 H 0 Z"
         id="path200" /></clipPath><clipPath
       clipPathUnits="userSpaceOnUse"
       id="clipPath210"><path
         d="M -0.599075,288.5 H 288.5 V 0.557053 H -0.599075 Z"
         id="path208" /></clipPath></defs><sodipodi:namedview
     pagecolor="#ffffff"
     bordercolor="#666666"
     borderopacity="1"
     objecttolerance="10"
     gridtolerance="10"
     guidetolerance="10"
     inkscape:pageopacity="0"
     inkscape:pageshadow="2"
     inkscape:window-width="640"
     inkscape:window-height="480"
     id="namedview4" /><g
     id="g10"
     inkscape:groupmode="layer"
     inkscape:label="Migobucks Logo_Vertical"
     transform="matrix(1.3333333,0,0,-1.3333333,0,384)"><g
       id="g12"><g
         id="g14"
         clip-path="url(#clipPath18)"><g
           id="g20"
           transform="translate(149.4793,124.4964)"><path
             d="m 0,0 c -1.22,0 -2.313,0.277 -3.28,0.816 -0.974,0.547 -1.75,1.338 -2.328,2.376 -0.57,1.038 -0.872,2.305 -0.903,3.795 -0.016,1.132 0.142,2.13 0.475,3.002 0.333,0.871 0.808,1.608 1.41,2.21 0.602,0.594 1.299,1.053 2.091,1.362 0.792,0.301 1.64,0.46 2.535,0.46 0.998,-0.008 1.909,-0.19 2.717,-0.547 C 3.525,13.11 4.222,12.611 4.8,11.969 5.378,11.328 5.822,10.583 6.139,9.727 6.448,8.88 6.606,7.969 6.606,6.987 6.606,6.004 6.448,5.093 6.139,4.254 5.822,3.406 5.378,2.669 4.8,2.028 4.222,1.394 3.525,0.903 2.717,0.547 1.909,0.19 0.998,0.008 0,0 m 0.951,19.487 c -1.355,-0.009 -2.63,-0.215 -3.826,-0.627 -1.189,-0.411 -2.282,-0.982 -3.256,-1.702 v 10.075 c 0,0.42 -0.071,0.777 -0.206,1.07 -0.143,0.293 -0.349,0.507 -0.634,0.634 -0.277,0.126 -0.634,0.15 -1.061,0.055 l -2.614,-0.475 c -0.595,-0.135 -1.046,-0.341 -1.347,-0.626 -0.309,-0.277 -0.459,-0.689 -0.459,-1.228 V -3.042 c 0.008,-0.578 0.166,-1.03 0.475,-1.354 0.317,-0.325 0.76,-0.491 1.331,-0.499 h 1.663 c 0.57,0.008 1.006,0.174 1.307,0.499 0.301,0.324 0.452,0.776 0.452,1.354 v 1.188 c 0.649,-0.736 1.386,-1.37 2.217,-1.916 0.825,-0.547 1.735,-0.975 2.725,-1.284 0.999,-0.301 2.076,-0.451 3.233,-0.459 1.758,0.008 3.358,0.333 4.808,0.974 1.457,0.634 2.717,1.521 3.778,2.654 1.061,1.141 1.886,2.463 2.464,3.968 0.578,1.513 0.871,3.145 0.879,4.904 -0.008,1.766 -0.301,3.406 -0.879,4.919 -0.578,1.513 -1.403,2.835 -2.464,3.968 -1.061,1.133 -2.321,2.02 -3.778,2.646 -1.45,0.634 -3.05,0.958 -4.808,0.967"
             style="fill:#ee357e;fill-opacity:1;fill-rule:nonzero;stroke:none"
             id="path22" /></g><g
           id="g24"
           transform="translate(184.8111,143.6025)"><path
             d="m 0,0 h -2.757 c -0.57,0 -1.006,-0.158 -1.307,-0.475 -0.301,-0.309 -0.451,-0.753 -0.451,-1.331 v -12.167 c 0,-1.054 -0.206,-1.965 -0.602,-2.741 -0.396,-0.768 -0.959,-1.37 -1.696,-1.79 -0.728,-0.428 -1.592,-0.642 -2.598,-0.65 -0.974,0.008 -1.806,0.222 -2.511,0.642 -0.697,0.42 -1.235,1.006 -1.615,1.758 -0.381,0.753 -0.571,1.632 -0.579,2.638 v 12.31 c -0.008,0.578 -0.166,1.022 -0.475,1.331 C -14.908,-0.158 -15.352,0 -15.922,0 h -2.756 c -0.571,0 -1.007,-0.158 -1.308,-0.475 -0.3,-0.309 -0.451,-0.753 -0.451,-1.331 v -13.023 c 0.016,-1.964 0.42,-3.675 1.212,-5.133 0.8,-1.465 1.917,-2.606 3.358,-3.421 1.442,-0.808 3.137,-1.22 5.078,-1.236 1.141,0.008 2.171,0.166 3.081,0.475 0.912,0.317 1.72,0.753 2.408,1.315 0.698,0.562 1.292,1.212 1.783,1.964 v -1.283 c 0.008,-0.578 0.166,-1.03 0.475,-1.354 0.317,-0.325 0.76,-0.491 1.331,-0.499 H 0 c 0.578,0.008 1.022,0.174 1.331,0.499 0.317,0.324 0.475,0.776 0.475,1.354 v 20.342 c 0,0.578 -0.158,1.022 -0.475,1.331 C 1.022,-0.158 0.578,0 0,0"
             style="fill:#ee357e;fill-opacity:1;fill-rule:nonzero;stroke:none"
             id="path26" /></g><g
           id="g28"
           transform="translate(201.6559,118.983)"><path
             d="M 0,0 C 1.766,-0.008 3.437,0.293 5.014,0.895 6.59,1.489 8.024,2.432 9.315,3.707 9.513,3.897 9.664,4.103 9.767,4.325 9.878,4.547 9.901,4.793 9.846,5.054 9.783,5.315 9.608,5.593 9.315,5.894 L 7.652,7.557 C 7.446,7.771 7.232,7.922 7.01,8.016 6.78,8.119 6.535,8.135 6.265,8.064 6.004,7.993 5.703,7.803 5.37,7.51 4.752,6.963 4.142,6.535 3.549,6.242 2.954,5.941 2.376,5.735 1.822,5.624 1.259,5.513 0.713,5.458 0.19,5.466 -1.18,5.482 -2.369,5.791 -3.375,6.401 -4.38,7.01 -5.165,7.85 -5.719,8.904 c -0.555,1.053 -0.832,2.249 -0.84,3.596 0.008,1.362 0.301,2.567 0.871,3.62 0.571,1.053 1.363,1.885 2.377,2.487 1.006,0.61 2.178,0.919 3.501,0.927 0.523,0.008 1.069,-0.039 1.632,-0.151 0.554,-0.102 1.132,-0.308 1.727,-0.601 0.593,-0.293 1.203,-0.729 1.821,-1.292 0.333,-0.277 0.634,-0.451 0.895,-0.515 0.27,-0.071 0.515,-0.055 0.745,0.04 0.222,0.087 0.436,0.238 0.642,0.428 l 1.663,1.663 c 0.293,0.301 0.468,0.587 0.531,0.856 0.055,0.269 0.032,0.515 -0.079,0.744 C 9.664,20.936 9.513,21.15 9.315,21.34 8.024,22.592 6.59,23.518 5.014,24.112 3.437,24.707 1.766,25.007 0,25 c -1.862,-0.008 -3.573,-0.325 -5.133,-0.943 -1.561,-0.618 -2.915,-1.489 -4.064,-2.614 -1.148,-1.125 -2.044,-2.448 -2.669,-3.961 -0.634,-1.52 -0.959,-3.176 -0.967,-4.982 0.008,-1.79 0.333,-3.446 0.967,-4.959 0.625,-1.521 1.521,-2.836 2.669,-3.96 1.149,-1.133 2.503,-2.004 4.064,-2.63 C -3.573,0.325 -1.862,0.008 0,0"
             style="fill:#ee357e;fill-opacity:1;fill-rule:nonzero;stroke:none"
             id="path30" /></g><g
           id="g32"
           transform="translate(235.0871,121.4549)"><path
             d="m 0,0 -8.602,11.216 8.269,9.078 c 0.278,0.349 0.404,0.666 0.389,0.943 -0.016,0.277 -0.143,0.499 -0.381,0.665 -0.237,0.159 -0.538,0.246 -0.911,0.246 h -3.517 c -0.388,0 -0.736,-0.072 -1.029,-0.206 -0.301,-0.127 -0.587,-0.325 -0.856,-0.586 -0.269,-0.262 -0.562,-0.587 -0.871,-0.967 l -8.08,-9.173 v 19.059 c 0,0.42 -0.071,0.776 -0.206,1.069 -0.142,0.293 -0.349,0.507 -0.634,0.634 -0.277,0.127 -0.633,0.15 -1.061,0.055 l -2.567,-0.475 c -0.594,-0.134 -1.045,-0.34 -1.346,-0.626 -0.309,-0.277 -0.46,-0.689 -0.46,-1.227 V 0 c 0.008,-0.578 0.167,-1.03 0.476,-1.355 0.317,-0.325 0.76,-0.491 1.33,-0.499 h 2.71 c 0.57,0.008 1.005,0.174 1.306,0.499 0.302,0.325 0.452,0.777 0.452,1.355 v 5.465 l 2.281,2.472 5.941,-8.032 c 0.389,-0.595 0.792,-1.038 1.212,-1.323 0.412,-0.293 0.911,-0.436 1.498,-0.436 h 3.754 c 0.372,0.008 0.674,0.087 0.911,0.246 0.238,0.166 0.364,0.388 0.38,0.665 C 0.404,-0.666 0.277,-0.349 0,0 Z"
             style="fill:#ee357e;fill-opacity:1;fill-rule:nonzero;stroke:none"
             id="path34" /></g><g
           id="g36"
           transform="translate(245.9127,118.983)"><path
             d="M 0,0 C 1.869,0.008 3.501,0.301 4.895,0.879 6.297,1.466 7.39,2.297 8.175,3.382 8.951,4.46 9.347,5.759 9.363,7.272 9.355,8.373 9.165,9.316 8.785,10.124 8.412,10.924 7.889,11.613 7.224,12.199 6.559,12.785 5.79,13.3 4.911,13.752 c -0.871,0.443 -1.814,0.871 -2.82,1.267 -0.943,0.356 -1.782,0.681 -2.519,0.99 -0.729,0.301 -1.307,0.626 -1.727,0.974 -0.427,0.349 -0.642,0.769 -0.649,1.268 0.007,0.602 0.277,1.085 0.8,1.442 0.53,0.364 1.259,0.546 2.194,0.554 0.935,0.008 1.798,-0.143 2.574,-0.444 0.777,-0.301 1.553,-0.768 2.321,-1.41 0.484,-0.348 0.943,-0.499 1.394,-0.451 0.452,0.055 0.856,0.285 1.22,0.689 l 0.666,0.856 C 8.848,20.073 9.07,20.58 9.014,21 8.959,21.427 8.713,21.823 8.27,22.196 7.644,22.782 6.899,23.289 6.028,23.709 5.157,24.121 4.222,24.445 3.224,24.667 2.226,24.889 1.212,25 0.19,25 -1.64,24.992 -3.232,24.699 -4.579,24.128 -5.925,23.55 -6.971,22.734 -7.716,21.681 -8.452,20.619 -8.833,19.368 -8.84,17.918 c 0.016,-1.133 0.245,-2.099 0.705,-2.891 0.459,-0.792 1.077,-1.458 1.853,-2.004 0.769,-0.547 1.624,-1.014 2.575,-1.402 0.95,-0.389 1.917,-0.745 2.899,-1.07 C -0.087,10.274 0.594,9.997 1.212,9.712 1.837,9.426 2.344,9.078 2.732,8.682 3.121,8.286 3.319,7.787 3.327,7.177 3.311,6.48 3.01,5.925 2.408,5.521 1.806,5.11 0.99,4.903 -0.048,4.895 -1.196,4.903 -2.274,5.133 -3.295,5.569 -4.309,6.012 -5.22,6.591 -6.036,7.32 -6.488,7.708 -6.931,7.906 -7.367,7.906 -7.803,7.913 -8.246,7.668 -8.698,7.177 L -9.506,6.274 C -9.989,5.759 -10.211,5.283 -10.155,4.856 -10.1,4.428 -9.854,4.008 -9.411,3.612 -8.738,2.892 -7.898,2.266 -6.908,1.727 -5.917,1.188 -4.824,0.761 -3.644,0.46 -2.464,0.159 -1.244,0.008 0,0"
             style="fill:#ee357e;fill-opacity:1;fill-rule:nonzero;stroke:none"
             id="path38" /></g><g
           id="g40"
           transform="translate(70.8876,121.4549)"><path
             d="m 0,0 -3.897,27.661 c -0.095,0.546 -0.301,0.951 -0.626,1.22 -0.317,0.261 -0.721,0.396 -1.228,0.396 h -0.38 c -0.491,0 -0.919,-0.143 -1.267,-0.412 -0.341,-0.277 -0.634,-0.681 -0.872,-1.204 l -9.173,-21.102 -9.505,21.102 c -0.23,0.523 -0.515,0.927 -0.848,1.204 -0.333,0.269 -0.745,0.412 -1.243,0.412 h -0.381 c -0.522,0 -0.942,-0.135 -1.259,-0.396 -0.317,-0.269 -0.515,-0.674 -0.594,-1.22 L -35.266,0 c -0.063,-0.594 0.048,-1.054 0.333,-1.371 0.293,-0.317 0.737,-0.483 1.331,-0.483 h 2.709 c 0.594,0 1.038,0.166 1.346,0.483 0.302,0.317 0.492,0.777 0.555,1.371 l 1.996,16.825 7.082,-17.158 c 0.238,-0.57 0.539,-1.006 0.911,-1.307 0.372,-0.301 0.832,-0.451 1.37,-0.451 h 0.381 c 0.522,0 0.966,0.15 1.338,0.451 0.372,0.301 0.689,0.737 0.943,1.307 L -7.937,16.825 -5.893,0 c 0.063,-0.594 0.245,-1.054 0.538,-1.371 0.285,-0.317 0.729,-0.483 1.315,-0.483 h 2.376 c 0.603,0 1.054,0.166 1.347,0.483 C -0.016,-1.054 0.087,-0.594 0,0"
             style="fill:#1c76bc;fill-opacity:1;fill-rule:nonzero;stroke:none"
             id="path42" /></g><g
           id="g44"
           transform="translate(94.8791,126.445)"><path
             d="m 0,0 c -1.275,0.008 -2.392,0.285 -3.342,0.824 -0.951,0.539 -1.688,1.283 -2.219,2.234 -0.53,0.942 -0.8,2.036 -0.808,3.263 0.008,1.244 0.278,2.345 0.817,3.303 0.53,0.951 1.275,1.696 2.217,2.242 0.951,0.539 2.044,0.816 3.288,0.824 C 1.212,12.682 2.321,12.405 3.272,11.866 4.222,11.32 4.967,10.575 5.505,9.624 6.044,8.666 6.313,7.565 6.321,6.321 6.313,5.094 6.044,4 5.521,3.058 4.99,2.107 4.254,1.363 3.311,0.824 2.361,0.285 1.26,0.008 0,0 M 10.029,17.157 H 8.365 c -0.57,0 -1.014,-0.158 -1.331,-0.475 C 6.725,16.373 6.567,15.93 6.559,15.351 v -0.76 c -0.982,0.911 -2.123,1.632 -3.43,2.155 -1.307,0.514 -2.741,0.784 -4.317,0.792 -1.648,-0.008 -3.169,-0.293 -4.555,-0.848 -1.394,-0.562 -2.598,-1.346 -3.628,-2.352 -1.037,-1.014 -1.837,-2.195 -2.4,-3.557 -0.57,-1.363 -0.863,-2.844 -0.871,-4.46 0.008,-1.6 0.301,-3.081 0.863,-4.428 0.571,-1.354 1.371,-2.535 2.401,-3.54 1.021,-1.015 2.233,-1.791 3.611,-2.353 1.387,-0.555 2.892,-0.84 4.531,-0.848 1.41,0.008 2.718,0.23 3.929,0.666 1.212,0.435 2.29,1.037 3.248,1.806 V -5.228 C 5.933,-6.234 5.751,-7.113 5.395,-7.85 5.038,-8.595 4.547,-9.205 3.913,-9.688 c -0.626,-0.483 -1.346,-0.847 -2.162,-1.085 -0.816,-0.23 -1.687,-0.348 -2.606,-0.348 -1.125,0.007 -2.155,0.158 -3.09,0.443 -0.934,0.293 -1.766,0.681 -2.503,1.172 -0.736,0.484 -1.378,1.022 -1.917,1.616 -0.475,0.436 -0.927,0.642 -1.338,0.61 -0.42,-0.031 -0.8,-0.213 -1.133,-0.562 l -0.903,-1.046 c -0.46,-0.451 -0.681,-0.887 -0.65,-1.315 0.032,-0.419 0.23,-0.823 0.602,-1.204 0.84,-0.927 1.79,-1.719 2.852,-2.384 1.07,-0.665 2.265,-1.18 3.596,-1.537 1.331,-0.356 2.805,-0.538 4.436,-0.546 1.759,0 3.406,0.229 4.927,0.697 1.529,0.467 2.876,1.172 4.04,2.131 1.157,0.958 2.067,2.162 2.725,3.628 0.65,1.465 0.99,3.192 0.998,5.188 v 19.581 c 0,0.579 -0.15,1.022 -0.451,1.331 -0.302,0.317 -0.737,0.475 -1.307,0.475 z"
             style="fill:#1c76bc;fill-opacity:1;fill-rule:nonzero;stroke:none"
             id="path46" /></g><g
           id="g48"
           transform="translate(121.8467,124.4964)"><path
             d="m 0,0 c -1.323,0.008 -2.495,0.317 -3.501,0.911 -1.014,0.602 -1.806,1.426 -2.377,2.471 -0.57,1.046 -0.863,2.25 -0.871,3.605 0.008,1.362 0.309,2.566 0.887,3.619 0.578,1.054 1.37,1.886 2.377,2.488 1.013,0.61 2.178,0.919 3.485,0.927 C 1.307,14.013 2.464,13.704 3.469,13.094 4.475,12.492 5.26,11.66 5.83,10.606 6.4,9.553 6.693,8.349 6.701,6.987 6.693,5.632 6.4,4.428 5.83,3.382 5.26,2.337 4.475,1.513 3.469,0.911 2.464,0.317 1.307,0.008 0,0 m 0,-5.513 c 1.885,0.008 3.62,0.325 5.196,0.95 1.577,0.626 2.947,1.497 4.112,2.63 1.156,1.125 2.059,2.44 2.693,3.961 0.641,1.513 0.966,3.169 0.974,4.959 -0.008,1.79 -0.333,3.445 -0.974,4.958 -0.634,1.521 -1.537,2.836 -2.693,3.969 C 8.143,17.039 6.773,17.91 5.196,18.536 3.62,19.162 1.885,19.479 0,19.487 -1.885,19.478 -3.62,19.162 -5.204,18.536 -6.789,17.91 -8.159,17.039 -9.323,15.914 c -1.173,-1.133 -2.076,-2.448 -2.718,-3.969 -0.649,-1.513 -0.974,-3.168 -0.982,-4.958 0.008,-1.79 0.333,-3.446 0.982,-4.959 0.642,-1.521 1.545,-2.836 2.718,-3.961 1.164,-1.133 2.534,-2.004 4.119,-2.63 1.584,-0.625 3.319,-0.942 5.204,-0.95"
             style="fill:#1c76bc;fill-opacity:1;fill-rule:nonzero;stroke:none"
             id="path50" /></g><g
           id="g52"
           transform="translate(75.4318,119.6018)"><path
             d="m 0,0 h 2.785 c 0.576,0.008 1.017,0.176 1.32,0.504 0.303,0.327 0.456,0.784 0.456,1.368 v 19.357 c 0,0.585 -0.153,1.032 -0.456,1.345 -0.304,0.32 -0.745,0.48 -1.32,0.48 H 0 c -0.576,0 -1.024,-0.16 -1.345,-0.48 -0.311,-0.313 -0.471,-0.76 -0.479,-1.345 V 1.872 C -1.816,1.288 -1.656,0.832 -1.345,0.504 -1.024,0.176 -0.576,0.008 0,0"
             style="fill:#1c76bc;fill-opacity:1;fill-rule:nonzero;stroke:none"
             id="path54" /></g><g
           id="g56"
           transform="translate(76.8238,144.5842)"><path
             d="M 0,0 C 0.691,0.007 1.323,0.175 1.883,0.508 2.449,0.835 2.9,1.286 3.234,1.846 3.569,2.412 3.743,3.044 3.751,3.749 3.743,4.44 3.569,5.072 3.234,5.632 2.9,6.199 2.449,6.649 1.883,6.983 1.323,7.318 0.691,7.492 0,7.5 -0.704,7.492 -1.337,7.318 -1.904,6.983 -2.463,6.649 -2.914,6.199 -3.241,5.632 -3.575,5.072 -3.742,4.44 -3.75,3.749 -3.742,3.044 -3.575,2.412 -3.241,1.846 -2.914,1.286 -2.463,0.835 -1.904,0.508 -1.337,0.175 -0.704,0.007 0,0"
             style="fill:#1c76bc;fill-opacity:1;fill-rule:nonzero;stroke:none"
             id="path58" /></g><g
           id="g60"
           transform="translate(37.5957,95.5105)"><path
             d="m 0,0 h 0.434 c 0.151,0.003 0.265,0.048 0.34,0.139 0.073,0.089 0.112,0.209 0.112,0.362 v 9.178 h 3.092 c 0.159,0 0.285,0.042 0.371,0.122 0.087,0.078 0.131,0.196 0.131,0.346 v 0.251 c 0,0.15 -0.044,0.267 -0.131,0.348 -0.086,0.078 -0.212,0.12 -0.371,0.12 H -3.56 c -0.151,0 -0.271,-0.042 -0.355,-0.12 -0.086,-0.081 -0.127,-0.198 -0.13,-0.348 v -0.251 c 0.003,-0.15 0.044,-0.268 0.13,-0.346 0.084,-0.08 0.204,-0.122 0.355,-0.122 h 3.092 V 0.501 c 0,-0.153 0.042,-0.273 0.123,-0.362 C -0.268,0.048 -0.15,0.003 0,0"
             style="fill:#7d7e7e;fill-opacity:1;fill-rule:nonzero;stroke:none"
             id="path62" /></g><g
           id="g64"
           transform="translate(47.2413,102.9158)"><path
             d="m 0,0 c 0.429,0 0.814,-0.07 1.159,-0.209 0.343,-0.139 0.638,-0.343 0.88,-0.61 0.201,-0.204 0.368,-0.446 0.499,-0.73 0.128,-0.284 0.22,-0.596 0.27,-0.942 h -5.65 c 0.075,0.51 0.24,0.95 0.496,1.324 0.253,0.37 0.582,0.657 0.981,0.86 C -0.964,-0.106 -0.51,-0.003 0,0 m -2.859,-3.594 h 6.453 c 0.17,0.003 0.306,0.053 0.409,0.148 0.103,0.097 0.156,0.225 0.159,0.387 0,0.599 -0.108,1.162 -0.32,1.691 C 3.63,-0.839 3.318,-0.373 2.908,0.033 2.546,0.387 2.12,0.663 1.63,0.858 1.139,1.053 0.596,1.151 0,1.154 -0.605,1.151 -1.162,1.039 -1.675,0.819 -2.184,0.599 -2.63,0.29 -3.009,-0.106 -3.388,-0.504 -3.683,-0.97 -3.892,-1.505 -4.104,-2.039 -4.21,-2.624 -4.213,-3.26 c 0.003,-0.551 0.084,-1.056 0.243,-1.51 0.156,-0.457 0.376,-0.861 0.657,-1.211 0.282,-0.352 0.607,-0.647 0.981,-0.889 0.373,-0.243 0.777,-0.424 1.209,-0.549 0.432,-0.123 0.88,-0.187 1.34,-0.187 0.254,0 0.527,0.019 0.819,0.064 0.29,0.045 0.591,0.117 0.895,0.217 0.306,0.098 0.604,0.232 0.897,0.396 0.292,0.164 0.562,0.368 0.816,0.61 0.059,0.056 0.103,0.12 0.139,0.19 0.034,0.066 0.045,0.142 0.034,0.222 -0.011,0.081 -0.059,0.168 -0.14,0.257 L 3.51,-5.5 C 3.413,-5.388 3.304,-5.33 3.19,-5.324 3.073,-5.319 2.942,-5.377 2.791,-5.5 2.491,-5.748 2.187,-5.943 1.886,-6.082 1.585,-6.221 1.293,-6.316 1.011,-6.372 0.73,-6.427 0.465,-6.455 0.217,-6.453 c -0.384,0 -0.749,0.065 -1.1,0.187 -0.351,0.126 -0.669,0.309 -0.953,0.552 -0.282,0.245 -0.513,0.543 -0.694,0.897 -0.178,0.357 -0.287,0.763 -0.329,1.223 z"
             style="fill:#7d7e7e;fill-opacity:1;fill-rule:nonzero;stroke:none"
             id="path66" /></g><g
           id="g68"
           transform="translate(57.1875,95.3098)"><path
             d="m 0,0 c 0.343,-0.003 0.697,0.031 1.064,0.098 0.368,0.069 0.736,0.195 1.104,0.379 0.37,0.18 0.727,0.44 1.075,0.777 0.059,0.061 0.103,0.128 0.139,0.2 0.034,0.07 0.045,0.145 0.034,0.223 C 3.405,1.758 3.357,1.839 3.276,1.922 L 3.093,2.106 C 2.984,2.209 2.873,2.268 2.758,2.282 2.641,2.293 2.513,2.234 2.374,2.106 2.131,1.892 1.9,1.722 1.68,1.596 1.463,1.471 1.254,1.379 1.056,1.321 0.861,1.262 0.677,1.223 0.501,1.209 0.329,1.192 0.167,1.184 0.017,1.187 -0.463,1.19 -0.892,1.27 -1.276,1.429 c -0.385,0.159 -0.713,0.382 -0.986,0.669 -0.273,0.287 -0.482,0.621 -0.627,1.008 -0.145,0.385 -0.22,0.803 -0.22,1.257 0.003,0.465 0.078,0.894 0.228,1.284 0.154,0.39 0.368,0.73 0.644,1.017 0.278,0.287 0.607,0.51 0.989,0.669 0.381,0.159 0.802,0.237 1.265,0.239 C 0.167,7.575 0.329,7.567 0.501,7.55 0.677,7.536 0.861,7.497 1.056,7.439 1.254,7.38 1.463,7.288 1.68,7.163 1.9,7.038 2.131,6.868 2.374,6.653 2.468,6.567 2.555,6.514 2.638,6.494 2.719,6.475 2.797,6.48 2.873,6.511 2.947,6.544 3.02,6.592 3.093,6.653 l 0.183,0.184 c 0.081,0.083 0.129,0.167 0.14,0.248 0.011,0.081 0,0.159 -0.034,0.228 C 3.346,7.386 3.302,7.45 3.243,7.506 2.895,7.843 2.538,8.102 2.168,8.283 1.8,8.467 1.432,8.592 1.064,8.662 0.697,8.729 0.343,8.762 0,8.759 -0.647,8.757 -1.24,8.645 -1.78,8.422 -2.321,8.202 -2.792,7.893 -3.187,7.497 -3.586,7.102 -3.895,6.64 -4.115,6.107 -4.332,5.578 -4.444,5.001 -4.447,4.38 -4.444,3.758 -4.332,3.182 -4.115,2.652 -3.895,2.123 -3.586,1.658 -3.187,1.262 -2.792,0.867 -2.321,0.557 -1.78,0.337 -1.24,0.117 -0.647,0.003 0,0"
             style="fill:#7d7e7e;fill-opacity:1;fill-rule:nonzero;stroke:none"
             id="path70" /></g><g
           id="g72"
           transform="translate(66.4315,104.0692)"><path
             d="M 0,0 C -0.585,-0.003 -1.106,-0.106 -1.557,-0.309 -2.012,-0.513 -2.39,-0.8 -2.691,-1.17 v 4.079 c 0,0.178 -0.039,0.309 -0.123,0.395 -0.08,0.084 -0.214,0.103 -0.396,0.056 L -3.56,3.276 C -3.711,3.235 -3.822,3.176 -3.898,3.098 -3.973,3.017 -4.012,2.917 -4.012,2.791 V -8.074 c 0,-0.145 0.042,-0.262 0.12,-0.348 0.078,-0.089 0.189,-0.134 0.332,-0.137 h 0.417 c 0.143,0.003 0.254,0.048 0.332,0.137 0.078,0.086 0.12,0.203 0.12,0.348 v 4.48 c 0.003,0.493 0.108,0.919 0.317,1.282 0.209,0.362 0.496,0.643 0.864,0.841 0.368,0.198 0.794,0.298 1.276,0.301 C 0.243,-1.173 0.655,-1.273 1,-1.471 1.346,-1.669 1.613,-1.95 1.803,-2.312 1.992,-2.675 2.087,-3.101 2.09,-3.594 v -4.48 c 0.002,-0.145 0.041,-0.262 0.12,-0.348 0.077,-0.089 0.189,-0.134 0.331,-0.137 h 0.418 c 0.142,0.003 0.253,0.048 0.331,0.137 0.078,0.086 0.12,0.203 0.12,0.348 v 4.597 c 0,0.513 -0.081,0.981 -0.237,1.404 C 3.017,-1.649 2.792,-1.282 2.496,-0.972 2.198,-0.663 1.842,-0.426 1.421,-0.256 1.003,-0.086 0.529,-0.003 0,0"
             style="fill:#7d7e7e;fill-opacity:1;fill-rule:nonzero;stroke:none"
             id="path74" /></g><g
           id="g76"
           transform="translate(76.3278,104.0692)"><path
             d="m 0,0 c -0.621,-0.003 -1.165,-0.117 -1.633,-0.343 -0.468,-0.225 -0.847,-0.54 -1.142,-0.944 v 0.685 c 0,0.154 -0.042,0.271 -0.12,0.357 -0.078,0.084 -0.189,0.128 -0.331,0.128 h -0.335 c -0.142,0 -0.253,-0.044 -0.331,-0.128 -0.078,-0.086 -0.12,-0.203 -0.12,-0.357 v -7.472 c 0,-0.145 0.042,-0.262 0.12,-0.348 0.078,-0.089 0.189,-0.134 0.331,-0.137 h 0.418 c 0.151,0.003 0.262,0.048 0.337,0.137 0.076,0.086 0.114,0.203 0.114,0.348 v 4.48 c 0.003,0.493 0.109,0.919 0.318,1.282 0.209,0.362 0.496,0.643 0.864,0.841 0.368,0.198 0.794,0.298 1.276,0.301 C 0.242,-1.173 0.655,-1.273 1,-1.471 1.346,-1.669 1.613,-1.95 1.803,-2.312 1.992,-2.675 2.086,-3.101 2.089,-3.594 v -4.48 c 0.003,-0.145 0.042,-0.262 0.12,-0.348 0.078,-0.089 0.19,-0.134 0.332,-0.137 h 0.418 c 0.15,0.003 0.264,0.048 0.34,0.137 0.075,0.086 0.111,0.203 0.111,0.348 v 4.597 c 0,0.513 -0.081,0.981 -0.237,1.404 C 3.017,-1.649 2.791,-1.282 2.496,-0.972 2.198,-0.663 1.842,-0.426 1.421,-0.256 1.003,-0.086 0.529,-0.003 0,0"
             style="fill:#7d7e7e;fill-opacity:1;fill-rule:nonzero;stroke:none"
             id="path78" /></g><g
           id="g80"
           transform="translate(86.0568,96.497)"><path
             d="m 0,0 c -0.457,0.003 -0.875,0.083 -1.254,0.239 -0.378,0.159 -0.708,0.382 -0.983,0.666 -0.279,0.287 -0.49,0.624 -0.644,1.014 -0.15,0.388 -0.225,0.811 -0.228,1.274 0.003,0.462 0.078,0.885 0.231,1.275 0.154,0.388 0.368,0.725 0.647,1.012 0.278,0.284 0.607,0.507 0.983,0.666 C -0.869,6.305 -0.454,6.383 0,6.385 0.457,6.383 0.875,6.305 1.254,6.146 1.632,5.987 1.961,5.764 2.237,5.48 2.516,5.193 2.73,4.856 2.881,4.468 3.031,4.078 3.106,3.655 3.109,3.193 3.106,2.73 3.031,2.307 2.881,1.919 2.73,1.529 2.516,1.192 2.237,0.905 1.961,0.621 1.632,0.398 1.254,0.239 0.875,0.083 0.457,0.003 0,0 m 0,-1.187 c 0.644,0.003 1.234,0.117 1.775,0.337 0.54,0.22 1.008,0.529 1.407,0.925 0.401,0.396 0.71,0.861 0.93,1.39 0.22,0.53 0.332,1.106 0.335,1.728 C 4.444,3.814 4.332,4.391 4.112,4.92 3.892,5.452 3.583,5.914 3.182,6.31 2.783,6.706 2.315,7.015 1.775,7.235 1.234,7.458 0.644,7.569 0,7.572 -0.644,7.569 -1.234,7.458 -1.775,7.235 -2.312,7.015 -2.783,6.706 -3.182,6.31 -3.58,5.914 -3.892,5.452 -4.112,4.92 -4.332,4.391 -4.444,3.814 -4.447,3.193 c 0.003,-0.622 0.115,-1.198 0.335,-1.728 0.22,-0.529 0.532,-0.994 0.93,-1.39 0.399,-0.396 0.87,-0.705 1.407,-0.925 0.541,-0.22 1.131,-0.334 1.775,-0.337"
             style="fill:#7d7e7e;fill-opacity:1;fill-rule:nonzero;stroke:none"
             id="path82" /></g><g
           id="g84"
           transform="translate(92.9773,95.5105)"><path
             d="M 0,0 H 0.418 C 0.56,0.003 0.671,0.048 0.75,0.137 0.827,0.223 0.869,0.34 0.869,0.485 v 10.982 c 0,0.179 -0.039,0.31 -0.122,0.396 -0.081,0.084 -0.215,0.103 -0.396,0.056 L 0,11.835 c -0.15,-0.041 -0.262,-0.1 -0.337,-0.178 -0.075,-0.081 -0.114,-0.181 -0.114,-0.307 V 0.485 c 0,-0.145 0.042,-0.262 0.12,-0.348 C -0.254,0.048 -0.142,0.003 0,0"
             style="fill:#7d7e7e;fill-opacity:1;fill-rule:nonzero;stroke:none"
             id="path86" /></g><g
           id="g88"
           transform="translate(100.3158,96.497)"><path
             d="m 0,0 c -0.457,0.003 -0.875,0.083 -1.254,0.239 -0.379,0.159 -0.708,0.382 -0.983,0.666 -0.279,0.287 -0.49,0.624 -0.644,1.014 -0.15,0.388 -0.226,0.811 -0.228,1.274 0.002,0.462 0.078,0.885 0.231,1.275 0.153,0.388 0.368,0.725 0.646,1.012 0.279,0.284 0.608,0.507 0.984,0.666 C -0.869,6.305 -0.454,6.383 0,6.385 0.457,6.383 0.875,6.305 1.254,6.146 1.632,5.987 1.961,5.764 2.237,5.48 2.516,5.193 2.73,4.856 2.881,4.468 3.031,4.078 3.106,3.655 3.109,3.193 3.106,2.73 3.031,2.307 2.881,1.919 2.73,1.529 2.516,1.192 2.237,0.905 1.961,0.621 1.632,0.398 1.254,0.239 0.875,0.083 0.457,0.003 0,0 m 0,-1.187 c 0.643,0.003 1.234,0.117 1.775,0.337 0.54,0.22 1.008,0.529 1.407,0.925 0.401,0.396 0.71,0.861 0.93,1.39 0.22,0.53 0.332,1.106 0.335,1.728 C 4.444,3.814 4.332,4.391 4.112,4.92 3.892,5.452 3.583,5.914 3.182,6.31 2.783,6.706 2.315,7.015 1.775,7.235 1.234,7.458 0.643,7.569 0,7.572 -0.644,7.569 -1.234,7.458 -1.775,7.235 -2.312,7.015 -2.783,6.706 -3.182,6.31 -3.58,5.914 -3.892,5.452 -4.112,4.92 -4.332,4.391 -4.444,3.814 -4.447,3.193 c 0.003,-0.622 0.115,-1.198 0.335,-1.728 0.22,-0.529 0.532,-0.994 0.93,-1.39 0.399,-0.396 0.87,-0.705 1.407,-0.925 0.541,-0.22 1.131,-0.334 1.775,-0.337"
             style="fill:#7d7e7e;fill-opacity:1;fill-rule:nonzero;stroke:none"
             id="path90" /></g><g
           id="g92"
           transform="translate(110.3623,97.3492)"><path
             d="m 0,0 c -0.577,0.003 -1.078,0.123 -1.508,0.359 -0.426,0.234 -0.757,0.56 -0.991,0.976 -0.237,0.415 -0.357,0.897 -0.36,1.44 0.003,0.546 0.126,1.025 0.363,1.446 0.236,0.418 0.568,0.744 0.991,0.983 0.427,0.237 0.923,0.36 1.488,0.363 C 0.551,5.564 1.05,5.441 1.479,5.201 1.908,4.965 2.245,4.636 2.488,4.215 2.73,3.794 2.855,3.31 2.858,2.758 2.855,2.218 2.733,1.744 2.496,1.329 2.259,0.916 1.925,0.593 1.499,0.359 1.073,0.123 0.571,0.006 0,0 M 3.644,6.603 H 3.31 C 3.168,6.603 3.059,6.559 2.987,6.475 2.914,6.389 2.875,6.272 2.875,6.118 V 5.466 C 2.53,5.856 2.109,6.16 1.61,6.383 1.109,6.603 0.546,6.717 -0.084,6.72 -0.683,6.717 -1.235,6.617 -1.736,6.416 -2.234,6.216 -2.669,5.94 -3.037,5.581 -3.405,5.224 -3.689,4.806 -3.89,4.33 -4.09,3.853 -4.193,3.335 -4.196,2.775 -4.193,2.215 -4.09,1.697 -3.89,1.22 c 0.201,-0.476 0.485,-0.894 0.853,-1.25 0.365,-0.357 0.797,-0.636 1.296,-0.836 0.498,-0.198 1.044,-0.301 1.64,-0.304 0.605,0.003 1.151,0.109 1.641,0.315 C 2.028,-0.649 2.446,-0.362 2.791,0 V -1.204 C 2.789,-1.657 2.719,-2.053 2.577,-2.39 2.435,-2.725 2.237,-3.003 1.981,-3.224 1.727,-3.444 1.426,-3.608 1.086,-3.716 0.744,-3.825 0.37,-3.878 -0.034,-3.878 c -0.459,0 -0.869,0.056 -1.223,0.164 -0.356,0.106 -0.677,0.265 -0.958,0.474 -0.282,0.209 -0.541,0.465 -0.777,0.766 -0.078,0.092 -0.159,0.153 -0.237,0.178 -0.081,0.025 -0.159,0.025 -0.234,0 -0.075,-0.022 -0.148,-0.058 -0.215,-0.111 l -0.133,-0.101 c -0.148,-0.116 -0.229,-0.236 -0.237,-0.362 -0.009,-0.122 0.041,-0.247 0.153,-0.373 0.334,-0.396 0.693,-0.724 1.078,-0.986 0.387,-0.262 0.808,-0.46 1.265,-0.591 0.457,-0.131 0.958,-0.195 1.502,-0.195 0.548,0 1.07,0.075 1.566,0.226 0.493,0.15 0.936,0.384 1.323,0.699 0.384,0.318 0.691,0.719 0.914,1.212 0.222,0.493 0.337,1.078 0.342,1.758 v 7.238 c 0,0.154 -0.041,0.271 -0.12,0.357 C 3.898,6.559 3.786,6.603 3.644,6.603"
             style="fill:#7d7e7e;fill-opacity:1;fill-rule:nonzero;stroke:none"
             id="path94" /></g><g
           id="g96"
           transform="translate(117.5167,95.5105)"><path
             d="M 0,0 H 0.418 C 0.56,0.003 0.672,0.048 0.75,0.137 0.828,0.223 0.869,0.34 0.869,0.485 V 7.957 C 0.869,8.11 0.828,8.227 0.75,8.314 0.672,8.397 0.56,8.442 0.418,8.442 H 0 C -0.142,8.442 -0.253,8.397 -0.331,8.314 -0.409,8.227 -0.451,8.11 -0.451,7.957 V 0.485 c 0,-0.145 0.042,-0.262 0.12,-0.348 C -0.253,0.048 -0.142,0.003 0,0 m 0.217,9.98 c 0.193,0.002 0.365,0.047 0.522,0.139 0.156,0.089 0.281,0.215 0.373,0.368 0.092,0.156 0.139,0.331 0.142,0.529 -0.003,0.192 -0.05,0.365 -0.142,0.521 C 1.02,11.693 0.895,11.818 0.739,11.911 0.582,12.002 0.41,12.05 0.217,12.053 0.025,12.05 -0.148,12.002 -0.304,11.911 c -0.155,-0.093 -0.281,-0.218 -0.373,-0.374 -0.092,-0.156 -0.139,-0.329 -0.142,-0.521 0.003,-0.198 0.05,-0.373 0.142,-0.529 0.092,-0.153 0.218,-0.279 0.373,-0.368 0.156,-0.092 0.329,-0.137 0.521,-0.139"
             style="fill:#7d7e7e;fill-opacity:1;fill-rule:nonzero;stroke:none"
             id="path98" /></g><g
           id="g100"
           transform="translate(124.6212,102.9158)"><path
             d="m 0,0 c 0.429,0 0.814,-0.07 1.159,-0.209 0.343,-0.139 0.638,-0.343 0.88,-0.61 0.201,-0.204 0.368,-0.446 0.499,-0.73 0.128,-0.284 0.22,-0.596 0.27,-0.942 h -5.65 c 0.075,0.51 0.239,0.95 0.496,1.324 0.253,0.37 0.582,0.657 0.981,0.86 C -0.964,-0.106 -0.51,-0.003 0,0 m -2.859,-3.594 h 6.453 c 0.17,0.003 0.306,0.053 0.409,0.148 0.103,0.097 0.156,0.225 0.159,0.387 0,0.599 -0.108,1.162 -0.32,1.691 C 3.63,-0.839 3.318,-0.373 2.908,0.033 2.546,0.387 2.12,0.663 1.63,0.858 1.139,1.053 0.596,1.151 0,1.154 -0.605,1.151 -1.162,1.039 -1.675,0.819 -2.184,0.599 -2.63,0.29 -3.009,-0.106 -3.388,-0.504 -3.683,-0.97 -3.892,-1.505 -4.104,-2.039 -4.21,-2.624 -4.213,-3.26 c 0.003,-0.551 0.084,-1.056 0.243,-1.51 0.156,-0.457 0.376,-0.861 0.657,-1.211 0.281,-0.352 0.607,-0.647 0.981,-0.889 0.373,-0.243 0.777,-0.424 1.209,-0.549 0.432,-0.123 0.88,-0.187 1.34,-0.187 0.254,0 0.527,0.019 0.819,0.064 0.29,0.045 0.591,0.117 0.895,0.217 0.306,0.098 0.604,0.232 0.897,0.396 0.292,0.164 0.562,0.368 0.816,0.61 0.058,0.056 0.103,0.12 0.139,0.19 0.034,0.066 0.045,0.142 0.034,0.222 -0.012,0.081 -0.059,0.168 -0.14,0.257 L 3.51,-5.5 C 3.413,-5.388 3.304,-5.33 3.19,-5.324 3.073,-5.319 2.942,-5.377 2.791,-5.5 2.49,-5.748 2.187,-5.943 1.886,-6.082 1.585,-6.221 1.292,-6.316 1.011,-6.372 0.73,-6.427 0.465,-6.455 0.217,-6.453 c -0.384,0 -0.749,0.065 -1.1,0.187 -0.352,0.126 -0.669,0.309 -0.953,0.552 -0.282,0.245 -0.513,0.543 -0.694,0.897 -0.178,0.357 -0.287,0.763 -0.329,1.223"
             style="fill:#7d7e7e;fill-opacity:1;fill-rule:nonzero;stroke:none"
             id="path102" /></g><g
           id="g104"
           transform="translate(133.1292,95.3098)"><path
             d="M 0,0 C 0.599,0.003 1.123,0.1 1.572,0.295 2.017,0.49 2.365,0.766 2.613,1.12 2.861,1.474 2.989,1.892 2.992,2.374 2.989,2.792 2.912,3.146 2.761,3.435 2.611,3.725 2.404,3.97 2.145,4.171 1.884,4.371 1.588,4.55 1.256,4.706 0.928,4.862 0.58,5.015 0.217,5.166 c -0.309,0.13 -0.582,0.261 -0.819,0.389 -0.239,0.129 -0.426,0.274 -0.562,0.43 -0.134,0.158 -0.204,0.348 -0.206,0.568 0.002,0.214 0.06,0.401 0.18,0.56 0.117,0.159 0.285,0.284 0.502,0.373 0.217,0.089 0.473,0.137 0.772,0.137 C 0.315,7.625 0.527,7.601 0.719,7.548 0.908,7.497 1.095,7.414 1.279,7.297 1.46,7.179 1.652,7.021 1.855,6.82 1.95,6.734 2.042,6.684 2.129,6.67 2.215,6.656 2.296,6.667 2.371,6.703 2.443,6.742 2.513,6.79 2.574,6.854 L 2.691,6.971 C 2.778,7.065 2.831,7.155 2.847,7.238 2.861,7.325 2.853,7.402 2.814,7.478 2.778,7.553 2.728,7.623 2.658,7.69 2.293,8.071 1.895,8.344 1.457,8.514 1.02,8.681 0.574,8.762 0.117,8.759 -0.454,8.757 -0.95,8.659 -1.373,8.47 -1.794,8.277 -2.123,8.01 -2.354,7.662 -2.585,7.316 -2.705,6.907 -2.708,6.436 -2.705,6.099 -2.635,5.809 -2.505,5.564 -2.371,5.322 -2.192,5.11 -1.967,4.931 -1.741,4.753 -1.488,4.597 -1.206,4.461 -0.925,4.327 -0.635,4.198 -0.334,4.079 -0.069,3.973 0.184,3.867 0.421,3.761 0.66,3.655 0.869,3.538 1.056,3.413 1.24,3.285 1.388,3.137 1.493,2.967 1.599,2.797 1.652,2.594 1.655,2.357 1.652,2.112 1.58,1.898 1.435,1.719 1.29,1.538 1.089,1.399 0.833,1.301 0.577,1.203 0.276,1.153 -0.067,1.153 -0.488,1.156 -0.875,1.243 -1.234,1.415 -1.593,1.585 -1.911,1.828 -2.19,2.14 -2.321,2.276 -2.446,2.34 -2.561,2.329 -2.677,2.318 -2.791,2.262 -2.908,2.157 L -3.026,2.039 C -3.123,1.961 -3.184,1.881 -3.204,1.802 -3.226,1.722 -3.22,1.641 -3.19,1.563 -3.162,1.485 -3.117,1.41 -3.059,1.337 -2.803,1.042 -2.508,0.794 -2.17,0.596 -1.83,0.398 -1.474,0.251 -1.1,0.151 -0.727,0.05 -0.359,0 0,0"
             style="fill:#7d7e7e;fill-opacity:1;fill-rule:nonzero;stroke:none"
             id="path106" /></g><g
           id="g108"
           transform="translate(143.7607,100.8931)"><path
             d="M 0,0 V 4.296 H 2.926 C 3.63,4.293 4.171,4.107 4.547,3.739 4.923,3.371 5.113,2.836 5.115,2.14 5.113,1.452 4.923,0.922 4.547,0.557 4.171,0.19 3.63,0.003 2.926,0 Z m -0.886,-5.383 h 0.418 c 0.15,0.003 0.267,0.048 0.346,0.14 C -0.042,-5.154 0,-5.034 0,-4.881 v 3.744 h 2.641 c 0.833,0.003 1.535,0.131 2.112,0.39 0.577,0.257 1.014,0.63 1.315,1.12 C 6.366,0.864 6.517,1.457 6.52,2.157 6.517,2.867 6.366,3.469 6.068,3.962 5.767,4.458 5.33,4.834 4.753,5.093 4.176,5.352 3.474,5.48 2.641,5.483 H -0.852 C -1.011,5.483 -1.137,5.439 -1.223,5.352 -1.309,5.266 -1.354,5.14 -1.354,4.982 v -9.863 c 0,-0.153 0.042,-0.273 0.123,-0.362 0.078,-0.092 0.195,-0.137 0.345,-0.139 z"
             style="fill:#7d7e7e;fill-opacity:1;fill-rule:nonzero;stroke:none"
             id="path110" /></g><g
           id="g112"
           transform="translate(156.3487,103.9688)"><path
             d="M 0,0 C -0.092,0.022 -0.181,0.042 -0.262,0.056 -0.343,0.07 -0.432,0.081 -0.524,0.089 -0.616,0.098 -0.727,0.101 -0.853,0.101 -1.354,0.098 -1.786,-0.019 -2.145,-0.251 -2.507,-0.479 -2.8,-0.797 -3.026,-1.203 v 0.702 c 0,0.153 -0.042,0.27 -0.119,0.356 -0.079,0.084 -0.19,0.129 -0.332,0.129 h -0.334 c -0.143,0 -0.254,-0.045 -0.332,-0.129 -0.078,-0.086 -0.12,-0.203 -0.12,-0.356 v -7.473 c 0,-0.144 0.042,-0.261 0.12,-0.347 0.078,-0.09 0.189,-0.134 0.332,-0.137 h 0.417 c 0.151,0.003 0.262,0.047 0.338,0.137 0.075,0.086 0.114,0.203 0.114,0.347 v 4.297 c 0,0.507 0.081,0.955 0.237,1.345 0.156,0.39 0.381,0.697 0.674,0.919 0.293,0.226 0.646,0.34 1.061,0.343 0.101,0 0.198,-0.008 0.293,-0.025 0.095,-0.016 0.192,-0.042 0.293,-0.075 0.128,-0.036 0.247,-0.036 0.356,0 0.111,0.039 0.192,0.139 0.245,0.301 l 0.067,0.267 c 0.053,0.198 0.05,0.34 -0.011,0.427 C 0.212,-0.086 0.122,-0.028 0,0 Z"
             style="fill:#7d7e7e;fill-opacity:1;fill-rule:nonzero;stroke:none"
             id="path114" /></g><g
           id="g116"
           transform="translate(158.488,95.5105)"><path
             d="M 0,0 H 0.418 C 0.56,0.003 0.672,0.048 0.75,0.137 0.828,0.223 0.869,0.34 0.869,0.485 V 7.957 C 0.869,8.11 0.828,8.227 0.75,8.314 0.672,8.397 0.56,8.442 0.418,8.442 H 0 C -0.142,8.442 -0.253,8.397 -0.331,8.314 -0.409,8.227 -0.451,8.11 -0.451,7.957 V 0.485 c 0,-0.145 0.042,-0.262 0.12,-0.348 C -0.253,0.048 -0.142,0.003 0,0 m 0.217,9.98 c 0.193,0.002 0.366,0.047 0.522,0.139 0.156,0.089 0.281,0.215 0.373,0.368 0.092,0.156 0.139,0.331 0.142,0.529 -0.003,0.192 -0.05,0.365 -0.142,0.521 C 1.02,11.693 0.895,11.818 0.739,11.911 0.583,12.002 0.41,12.05 0.217,12.053 0.025,12.05 -0.148,12.002 -0.304,11.911 c -0.155,-0.093 -0.281,-0.218 -0.373,-0.374 -0.092,-0.156 -0.139,-0.329 -0.142,-0.521 0.003,-0.198 0.05,-0.373 0.142,-0.529 0.092,-0.153 0.218,-0.279 0.373,-0.368 0.156,-0.092 0.329,-0.137 0.521,-0.139"
             style="fill:#7d7e7e;fill-opacity:1;fill-rule:nonzero;stroke:none"
             id="path118" /></g><g
           id="g120"
           transform="translate(168.7214,103.9523)"><path
             d="M 0,0 H -0.435 C -0.583,0 -0.703,-0.042 -0.791,-0.12 -0.88,-0.2 -0.956,-0.318 -1.02,-0.468 l -2.675,-6.051 -2.677,6.051 C -6.433,-0.318 -6.509,-0.2 -6.592,-0.12 -6.676,-0.042 -6.793,0 -6.94,0 H -7.392 C -7.537,-0.003 -7.64,-0.05 -7.701,-0.139 -7.762,-0.228 -7.765,-0.34 -7.709,-0.468 l 3.513,-7.656 c 0.064,-0.142 0.134,-0.243 0.209,-0.307 0.075,-0.064 0.167,-0.094 0.276,-0.094 h 0.033 c 0.106,0 0.198,0.03 0.273,0.094 0.076,0.064 0.145,0.165 0.212,0.307 l 3.494,7.656 C 0.354,-0.34 0.354,-0.228 0.292,-0.139 0.234,-0.05 0.136,-0.003 0,0"
             style="fill:#7d7e7e;fill-opacity:1;fill-rule:nonzero;stroke:none"
             id="path122" /></g><g
           id="g124"
           transform="translate(173.4822,96.4465)"><path
             d="m 0,0 c -0.415,0.003 -0.777,0.067 -1.087,0.195 -0.309,0.128 -0.551,0.312 -0.724,0.546 -0.173,0.234 -0.259,0.51 -0.262,0.831 0.003,0.342 0.098,0.643 0.284,0.899 0.187,0.257 0.451,0.457 0.791,0.602 0.34,0.145 0.739,0.218 1.198,0.22 C 0.543,3.291 0.869,3.254 1.181,3.185 1.493,3.115 1.777,3.029 2.034,2.928 2.293,2.831 2.51,2.733 2.691,2.641 V 2.107 C 2.688,1.78 2.611,1.488 2.46,1.226 2.307,0.967 2.103,0.747 1.847,0.563 1.59,0.382 1.304,0.243 0.986,0.145 0.666,0.051 0.337,0 0,0 M 0.451,7.623 C 0.097,7.626 -0.251,7.598 -0.591,7.536 -0.933,7.475 -1.279,7.369 -1.633,7.219 -1.984,7.068 -2.354,6.856 -2.742,6.586 -2.864,6.5 -2.942,6.394 -2.978,6.263 c -0.037,-0.131 0,-0.267 0.103,-0.412 l 0.1,-0.134 c 0.083,-0.111 0.175,-0.184 0.279,-0.214 0.106,-0.031 0.222,0 0.356,0.097 0.273,0.206 0.555,0.373 0.844,0.502 0.287,0.128 0.574,0.22 0.859,0.281 0.283,0.059 0.559,0.086 0.821,0.086 C 0.844,6.467 1.245,6.383 1.588,6.216 1.931,6.049 2.195,5.815 2.385,5.514 2.577,5.213 2.672,4.856 2.674,4.447 V 3.778 C 2.323,3.951 1.939,4.093 1.518,4.204 1.1,4.319 0.644,4.374 0.15,4.38 -0.563,4.377 -1.181,4.26 -1.711,4.029 -2.24,3.797 -2.653,3.472 -2.948,3.054 -3.24,2.639 -3.388,2.148 -3.394,1.588 c 0.006,-0.549 0.142,-1.028 0.41,-1.435 0.27,-0.406 0.647,-0.721 1.131,-0.947 0.485,-0.226 1.053,-0.34 1.702,-0.343 0.376,0 0.739,0.053 1.087,0.156 0.351,0.104 0.677,0.251 0.981,0.446 0.303,0.195 0.571,0.429 0.808,0.702 v -0.618 c 0,-0.145 0.039,-0.262 0.114,-0.348 0.075,-0.089 0.186,-0.134 0.337,-0.137 H 3.51 c 0.151,0 0.259,0.042 0.332,0.122 0.07,0.084 0.103,0.204 0.103,0.363 V 4.196 C 3.942,4.934 3.806,5.555 3.53,6.065 3.254,6.575 2.858,6.96 2.337,7.224 1.819,7.489 1.19,7.623 0.451,7.623"
             style="fill:#7d7e7e;fill-opacity:1;fill-rule:nonzero;stroke:none"
             id="path126" /></g><g
           id="g128"
           transform="translate(184.4814,96.4132)"><path
             d="M 0,0 -0.1,0.184 C -0.173,0.312 -0.262,0.398 -0.365,0.437 -0.471,0.477 -0.604,0.448 -0.769,0.351 -0.908,0.265 -1.047,0.198 -1.184,0.145 -1.323,0.095 -1.474,0.067 -1.638,0.067 c -0.27,0 -0.502,0.053 -0.699,0.161 -0.198,0.109 -0.349,0.279 -0.457,0.508 -0.109,0.228 -0.165,0.523 -0.165,0.886 v 4.814 h 2.123 c 0.151,0.002 0.27,0.041 0.354,0.12 0.086,0.077 0.128,0.189 0.131,0.331 v 0.201 c -0.003,0.142 -0.045,0.253 -0.131,0.331 -0.084,0.078 -0.203,0.12 -0.354,0.12 h -2.123 v 2.457 c 0,0.178 -0.039,0.31 -0.122,0.396 -0.081,0.084 -0.215,0.103 -0.396,0.055 L -3.828,10.364 C -3.978,10.322 -4.09,10.264 -4.165,10.186 -4.24,10.105 -4.279,10.005 -4.279,9.879 V 7.539 H -5.216 C -5.36,7.539 -5.472,7.497 -5.555,7.419 -5.639,7.341 -5.681,7.23 -5.684,7.088 V 6.887 c 0.003,-0.142 0.045,-0.254 0.129,-0.331 0.083,-0.079 0.195,-0.118 0.339,-0.12 h 0.937 V 1.572 c 0.002,-0.592 0.111,-1.085 0.323,-1.483 0.212,-0.396 0.504,-0.694 0.88,-0.892 0.376,-0.2 0.811,-0.3 1.304,-0.3 0.315,0 0.599,0.041 0.85,0.12 0.251,0.077 0.482,0.189 0.688,0.331 0.064,0.039 0.125,0.092 0.184,0.153 0.058,0.065 0.095,0.14 0.111,0.223 C 0.078,-0.192 0.059,-0.1 0,0"
             style="fill:#7d7e7e;fill-opacity:1;fill-rule:nonzero;stroke:none"
             id="path130" /></g><g
           id="g132"
           transform="translate(189.4137,102.9158)"><path
             d="m 0,0 c 0.429,0 0.814,-0.07 1.159,-0.209 0.343,-0.139 0.638,-0.343 0.88,-0.61 0.201,-0.204 0.368,-0.446 0.499,-0.73 0.128,-0.284 0.22,-0.596 0.27,-0.942 h -5.65 c 0.075,0.51 0.24,0.95 0.496,1.324 0.253,0.37 0.582,0.657 0.981,0.86 C -0.964,-0.106 -0.51,-0.003 0,0 m -2.859,-3.594 h 6.453 c 0.17,0.003 0.306,0.053 0.409,0.148 0.103,0.097 0.156,0.225 0.159,0.387 0,0.599 -0.108,1.162 -0.32,1.691 C 3.63,-0.839 3.318,-0.373 2.908,0.033 2.546,0.387 2.12,0.663 1.63,0.858 1.139,1.053 0.596,1.151 0,1.154 -0.605,1.151 -1.162,1.039 -1.675,0.819 -2.184,0.599 -2.63,0.29 -3.009,-0.106 -3.388,-0.504 -3.683,-0.97 -3.892,-1.505 -4.104,-2.039 -4.21,-2.624 -4.213,-3.26 c 0.003,-0.551 0.084,-1.056 0.243,-1.51 0.156,-0.457 0.376,-0.861 0.657,-1.211 0.282,-0.352 0.607,-0.647 0.981,-0.889 0.373,-0.243 0.777,-0.424 1.209,-0.549 0.432,-0.123 0.88,-0.187 1.34,-0.187 0.254,0 0.527,0.019 0.819,0.064 0.29,0.045 0.591,0.117 0.895,0.217 0.306,0.098 0.604,0.232 0.897,0.396 0.292,0.164 0.562,0.368 0.816,0.61 0.058,0.056 0.103,0.12 0.139,0.19 0.034,0.066 0.045,0.142 0.034,0.222 -0.011,0.081 -0.059,0.168 -0.14,0.257 L 3.51,-5.5 C 3.413,-5.388 3.304,-5.33 3.19,-5.324 3.073,-5.319 2.942,-5.377 2.791,-5.5 2.491,-5.748 2.187,-5.943 1.886,-6.082 1.585,-6.221 1.293,-6.316 1.011,-6.372 0.73,-6.427 0.465,-6.455 0.217,-6.453 c -0.384,0 -0.749,0.065 -1.1,0.187 -0.352,0.126 -0.669,0.309 -0.953,0.552 -0.282,0.245 -0.513,0.543 -0.694,0.897 -0.178,0.357 -0.287,0.763 -0.329,1.223"
             style="fill:#7d7e7e;fill-opacity:1;fill-rule:nonzero;stroke:none"
             id="path134" /></g><g
           id="g136"
           transform="translate(200.2954,95.5105)"><path
             d="m 0,0 h 5.7 c 0.154,0 0.273,0.042 0.362,0.122 0.092,0.079 0.137,0.196 0.14,0.346 V 0.719 C 6.199,0.869 6.154,0.987 6.062,1.064 5.973,1.145 5.854,1.187 5.7,1.187 H 0.886 v 9.177 c 0,0.159 -0.042,0.284 -0.122,0.371 -0.079,0.086 -0.196,0.131 -0.346,0.131 H 0 c -0.151,0 -0.268,-0.045 -0.345,-0.131 -0.081,-0.087 -0.123,-0.212 -0.123,-0.371 V 0.468 c 0,-0.15 0.042,-0.267 0.123,-0.346 C -0.268,0.042 -0.151,0 0,0"
             style="fill:#7d7e7e;fill-opacity:1;fill-rule:nonzero;stroke:none"
             id="path138" /></g><g
           id="g140"
           transform="translate(208.57,95.5105)"><path
             d="M 0,0 H 0.418 C 0.56,0.003 0.672,0.048 0.75,0.137 0.828,0.223 0.869,0.34 0.869,0.485 V 7.957 C 0.869,8.11 0.828,8.227 0.75,8.314 0.672,8.397 0.56,8.442 0.418,8.442 H 0 C -0.142,8.442 -0.253,8.397 -0.331,8.314 -0.409,8.227 -0.451,8.11 -0.451,7.957 V 0.485 c 0,-0.145 0.042,-0.262 0.12,-0.348 C -0.253,0.048 -0.142,0.003 0,0 m 0.217,9.98 c 0.193,0.002 0.365,0.047 0.522,0.139 0.156,0.089 0.281,0.215 0.373,0.368 0.092,0.156 0.139,0.331 0.142,0.529 -0.003,0.192 -0.05,0.365 -0.142,0.521 C 1.02,11.693 0.895,11.818 0.739,11.911 0.582,12.002 0.41,12.05 0.217,12.053 0.025,12.05 -0.148,12.002 -0.304,11.911 c -0.155,-0.093 -0.281,-0.218 -0.373,-0.374 -0.092,-0.156 -0.139,-0.329 -0.142,-0.521 0.003,-0.198 0.05,-0.373 0.142,-0.529 0.092,-0.153 0.218,-0.279 0.373,-0.368 0.156,-0.092 0.329,-0.137 0.521,-0.139"
             style="fill:#7d7e7e;fill-opacity:1;fill-rule:nonzero;stroke:none"
             id="path142" /></g><g
           id="g144"
           transform="translate(221.993,104.0692)"><path
             d="m 0,0 c -0.468,-0.003 -0.897,-0.07 -1.287,-0.206 -0.387,-0.137 -0.73,-0.329 -1.025,-0.58 -0.296,-0.247 -0.541,-0.543 -0.73,-0.886 -0.173,0.349 -0.399,0.647 -0.677,0.895 -0.276,0.247 -0.602,0.44 -0.975,0.574 C -5.068,-0.07 -5.488,0 -5.951,0 -6.564,-0.003 -7.102,-0.117 -7.567,-0.343 -8.035,-0.568 -8.414,-0.883 -8.709,-1.287 v 0.685 c 0,0.154 -0.042,0.271 -0.12,0.357 -0.078,0.084 -0.189,0.128 -0.331,0.128 h -0.335 c -0.142,0 -0.253,-0.044 -0.331,-0.128 -0.078,-0.086 -0.12,-0.203 -0.12,-0.357 v -7.472 c 0,-0.145 0.042,-0.262 0.12,-0.348 0.078,-0.089 0.189,-0.134 0.331,-0.137 h 0.418 c 0.151,0.003 0.262,0.048 0.337,0.137 0.076,0.086 0.114,0.203 0.114,0.348 v 4.48 c 0.003,0.493 0.109,0.919 0.318,1.282 0.206,0.362 0.49,0.643 0.853,0.841 0.365,0.198 0.782,0.298 1.253,0.301 0.471,-0.003 0.87,-0.103 1.201,-0.301 0.332,-0.198 0.583,-0.479 0.758,-0.841 0.175,-0.363 0.265,-0.789 0.265,-1.282 v -4.48 c 0.003,-0.145 0.042,-0.262 0.119,-0.348 0.078,-0.089 0.19,-0.134 0.332,-0.137 h 0.435 c 0.142,0.003 0.25,0.048 0.323,0.137 0.075,0.086 0.111,0.203 0.111,0.348 v 4.48 c 0.003,0.493 0.109,0.919 0.318,1.282 0.206,0.362 0.49,0.643 0.855,0.841 0.362,0.198 0.78,0.298 1.251,0.301 C 0.237,-1.173 0.635,-1.273 0.967,-1.471 1.299,-1.669 1.552,-1.95 1.725,-2.312 1.9,-2.675 1.989,-3.101 1.989,-3.594 v -4.48 c 0,-0.145 0.039,-0.262 0.112,-0.348 0.072,-0.089 0.181,-0.134 0.323,-0.137 h 0.435 c 0.142,0.003 0.253,0.048 0.331,0.137 0.078,0.086 0.12,0.203 0.12,0.348 v 4.597 c 0,0.513 -0.075,0.981 -0.226,1.404 -0.15,0.424 -0.365,0.791 -0.652,1.101 C 2.148,-0.663 1.8,-0.426 1.393,-0.256 0.983,-0.086 0.521,-0.003 0,0"
             style="fill:#7d7e7e;fill-opacity:1;fill-rule:nonzero;stroke:none"
             id="path146" /></g><g
           id="g148"
           transform="translate(228.2618,95.5105)"><path
             d="m 0,0 h 0.418 c 0.142,0.003 0.254,0.048 0.331,0.137 0.079,0.086 0.12,0.203 0.12,0.348 v 7.472 c 0,0.153 -0.041,0.27 -0.12,0.357 C 0.672,8.397 0.56,8.442 0.418,8.442 H 0 C -0.142,8.442 -0.253,8.397 -0.331,8.314 -0.409,8.227 -0.451,8.11 -0.451,7.957 V 0.485 c 0,-0.145 0.042,-0.262 0.12,-0.348 C -0.253,0.048 -0.142,0.003 0,0 m 0.217,9.98 c 0.193,0.002 0.366,0.047 0.521,0.139 0.157,0.089 0.282,0.215 0.374,0.368 0.092,0.156 0.139,0.331 0.142,0.529 -0.003,0.192 -0.05,0.365 -0.142,0.521 C 1.02,11.693 0.895,11.818 0.738,11.911 0.583,12.002 0.41,12.05 0.217,12.053 0.025,12.05 -0.148,12.002 -0.304,11.911 c -0.155,-0.093 -0.281,-0.218 -0.373,-0.374 -0.092,-0.156 -0.139,-0.329 -0.142,-0.521 0.003,-0.198 0.05,-0.373 0.142,-0.529 0.092,-0.153 0.218,-0.279 0.373,-0.368 0.156,-0.092 0.329,-0.137 0.521,-0.139"
             style="fill:#7d7e7e;fill-opacity:1;fill-rule:nonzero;stroke:none"
             id="path150" /></g><g
           id="g152"
           transform="translate(236.3017,96.4132)"><path
             d="M 0,0 -0.1,0.184 C -0.173,0.312 -0.262,0.398 -0.365,0.437 -0.471,0.477 -0.605,0.448 -0.769,0.351 -0.908,0.265 -1.048,0.198 -1.184,0.145 -1.323,0.095 -1.474,0.067 -1.638,0.067 c -0.271,0 -0.502,0.053 -0.7,0.161 -0.197,0.109 -0.348,0.279 -0.456,0.508 -0.109,0.228 -0.165,0.523 -0.165,0.886 v 4.814 h 2.123 c 0.151,0.002 0.27,0.041 0.354,0.12 0.086,0.077 0.128,0.189 0.131,0.331 v 0.201 c -0.003,0.142 -0.045,0.253 -0.131,0.331 -0.084,0.078 -0.203,0.12 -0.354,0.12 h -2.123 v 2.457 c 0,0.178 -0.039,0.31 -0.122,0.396 -0.081,0.084 -0.215,0.103 -0.396,0.055 l -0.351,-0.083 c -0.15,-0.042 -0.262,-0.1 -0.337,-0.178 -0.076,-0.081 -0.114,-0.181 -0.114,-0.307 v -2.34 h -0.937 c -0.144,0 -0.256,-0.042 -0.34,-0.12 C -5.639,7.341 -5.681,7.23 -5.684,7.088 V 6.887 c 0.003,-0.142 0.045,-0.254 0.128,-0.331 0.084,-0.079 0.196,-0.118 0.34,-0.12 h 0.937 V 1.572 c 0.002,-0.592 0.111,-1.085 0.323,-1.483 0.211,-0.396 0.504,-0.694 0.88,-0.892 0.376,-0.2 0.811,-0.3 1.304,-0.3 0.315,0 0.599,0.041 0.85,0.12 0.251,0.077 0.482,0.189 0.688,0.331 0.064,0.039 0.125,0.092 0.184,0.153 0.058,0.065 0.094,0.14 0.111,0.223 C 0.078,-0.192 0.058,-0.1 0,0"
             style="fill:#7d7e7e;fill-opacity:1;fill-rule:nonzero;stroke:none"
             id="path154" /></g><g
           id="g156"
           transform="translate(241.2339,102.9158)"><path
             d="m 0,0 c 0.429,0 0.814,-0.07 1.159,-0.209 0.343,-0.139 0.638,-0.343 0.88,-0.61 0.201,-0.204 0.368,-0.446 0.499,-0.73 0.128,-0.284 0.22,-0.596 0.27,-0.942 h -5.65 c 0.075,0.51 0.24,0.95 0.496,1.324 0.253,0.37 0.582,0.657 0.981,0.86 C -0.964,-0.106 -0.51,-0.003 0,0 m -2.859,-3.594 h 6.453 c 0.17,0.003 0.306,0.053 0.409,0.148 0.103,0.097 0.156,0.225 0.159,0.387 0,0.599 -0.108,1.162 -0.32,1.691 C 3.63,-0.839 3.318,-0.373 2.908,0.033 2.546,0.387 2.12,0.663 1.63,0.858 1.14,1.053 0.596,1.151 0,1.154 -0.605,1.151 -1.162,1.039 -1.674,0.819 -2.184,0.599 -2.63,0.29 -3.009,-0.106 -3.388,-0.504 -3.683,-0.97 -3.892,-1.505 -4.104,-2.039 -4.21,-2.624 -4.213,-3.26 c 0.003,-0.551 0.084,-1.056 0.243,-1.51 0.156,-0.457 0.376,-0.861 0.657,-1.211 0.282,-0.352 0.607,-0.647 0.981,-0.889 0.373,-0.243 0.777,-0.424 1.209,-0.549 0.432,-0.123 0.88,-0.187 1.34,-0.187 0.254,0 0.527,0.019 0.819,0.064 0.29,0.045 0.591,0.117 0.895,0.217 0.306,0.098 0.604,0.232 0.897,0.396 0.292,0.164 0.562,0.368 0.816,0.61 0.059,0.056 0.103,0.12 0.139,0.19 0.034,0.066 0.045,0.142 0.034,0.222 -0.011,0.081 -0.059,0.168 -0.14,0.257 L 3.51,-5.5 C 3.413,-5.388 3.304,-5.33 3.19,-5.324 3.073,-5.319 2.942,-5.377 2.791,-5.5 2.491,-5.748 2.187,-5.943 1.886,-6.082 1.585,-6.221 1.293,-6.316 1.011,-6.372 0.73,-6.427 0.465,-6.455 0.217,-6.453 c -0.384,0 -0.749,0.065 -1.1,0.187 -0.352,0.126 -0.669,0.309 -0.953,0.552 -0.282,0.245 -0.513,0.543 -0.694,0.897 -0.178,0.357 -0.287,0.763 -0.329,1.223 z"
             style="fill:#7d7e7e;fill-opacity:1;fill-rule:nonzero;stroke:none"
             id="path158" /></g><g
           id="g160"
           transform="translate(251.0788,96.497)"><path
             d="m 0,0 c -0.465,0.003 -0.883,0.086 -1.257,0.253 -0.37,0.167 -0.688,0.399 -0.952,0.691 -0.262,0.293 -0.465,0.632 -0.605,1.017 -0.139,0.382 -0.211,0.794 -0.211,1.232 0,0.437 0.072,0.849 0.211,1.231 0.14,0.385 0.343,0.724 0.605,1.017 0.264,0.292 0.582,0.524 0.952,0.691 C -0.883,6.299 -0.465,6.383 0,6.385 0.404,6.385 0.786,6.318 1.145,6.187 1.505,6.057 1.822,5.856 2.098,5.592 2.374,5.327 2.594,4.995 2.75,4.594 2.909,4.195 2.989,3.728 2.992,3.193 2.989,2.663 2.909,2.198 2.753,1.797 2.597,1.398 2.38,1.067 2.104,0.799 1.828,0.535 1.51,0.334 1.151,0.2 0.791,0.067 0.41,0 0,0 M 3.644,10.932 3.293,10.849 C 3.143,10.807 3.034,10.748 2.965,10.67 2.892,10.589 2.859,10.489 2.859,10.364 V 6.352 C 2.488,6.731 2.051,7.029 1.544,7.243 1.039,7.458 0.479,7.569 -0.133,7.572 -0.763,7.569 -1.334,7.455 -1.853,7.232 -2.368,7.006 -2.814,6.697 -3.187,6.299 -3.563,5.898 -3.85,5.435 -4.053,4.906 -4.257,4.377 -4.36,3.805 -4.363,3.193 c 0.003,-0.611 0.106,-1.179 0.31,-1.708 0.203,-0.527 0.49,-0.992 0.866,-1.391 0.373,-0.401 0.819,-0.713 1.334,-0.938 0.519,-0.223 1.09,-0.34 1.72,-0.343 0.423,0.003 0.821,0.058 1.189,0.167 0.368,0.111 0.708,0.265 1.014,0.463 0.31,0.197 0.583,0.426 0.822,0.691 V -0.502 C 2.895,-0.647 2.934,-0.764 3.012,-0.85 3.09,-0.939 3.201,-0.984 3.343,-0.987 h 0.385 c 0.142,0.003 0.253,0.048 0.332,0.137 0.077,0.086 0.119,0.203 0.119,0.348 V 10.481 C 4.182,10.659 4.14,10.79 4.057,10.876 3.973,10.96 3.834,10.979 3.644,10.932"
             style="fill:#7d7e7e;fill-opacity:1;fill-rule:nonzero;stroke:none"
             id="path162" /></g><g
           id="g164"
           transform="translate(181.9953,222.0459)"><path
             d="M 0,0 -0.001,0.001 C -2.814,2.815 -7.419,2.814 -10.234,0 l -37.92,-37.921 c -2.814,-2.814 -2.815,-7.419 0,-10.232 v -0.001 c 2.815,-2.813 7.418,-2.815 10.233,0 L 0,-10.233 C 2.815,-7.418 2.813,-2.815 0,0"
             style="fill:#ee357e;fill-opacity:1;fill-rule:evenodd;stroke:none"
             id="path166" /></g><g
           id="g168"
           transform="translate(113.3748,204.5916)"><path
             d="m 0,0 v 0 c 2.826,2.826 8.211,2.022 12.028,-1.795 l 16.876,-16.876 c 3.817,-3.817 4.621,-9.203 1.796,-12.028 -2.826,-2.826 -8.211,-2.022 -12.029,1.795 L 1.795,-12.028 C -2.022,-8.211 -2.826,-2.826 0,0"
             style="fill:#1c76bc;fill-opacity:1;fill-rule:evenodd;stroke:none"
             id="path170" /></g><g
           id="g172"
           transform="translate(120.3304,206.4393)"><path
             d="m 0,0 v 0 c 3.86,-1.034 5.857,-6.1 4.46,-11.315 l -6.178,-23.053 c -1.397,-5.214 -5.659,-8.603 -9.519,-7.568 -3.86,1.034 -5.856,6.099 -4.459,11.314 l 6.177,23.053 C -8.122,-2.355 -3.86,1.034 0,0"
             style="fill:#1c76bc;fill-opacity:1;fill-rule:evenodd;stroke:none"
             id="path174" /></g><g
           id="g176"
           transform="translate(157.5103,206.4391)"><path
             d="m 0,0 v 0 c 3.86,1.034 8.122,-2.354 9.519,-7.569 l 6.177,-23.053 c 1.397,-5.214 -0.599,-10.28 -4.459,-11.314 -3.86,-1.035 -8.122,2.354 -9.519,7.568 l -6.177,23.054 C -5.857,-6.1 -3.86,-1.034 0,0"
             style="fill:#ee357e;fill-opacity:1;fill-rule:evenodd;stroke:none"
             id="path178" /></g><g
           id="g180"
           transform="translate(120.3298,206.4395)"><path
             d="m 0,0 v 0 c 3.844,-1.03 6.147,-5.018 5.117,-8.862 l -3.231,-12.06 -8.842,8.842 c -2.812,2.813 -2.814,7.416 -10e-4,10.23 l 10e-4,0.002 0.079,0.077 0.008,0.007 C -5.1,-0.081 -2.52,0.674 0,0"
             style="fill:#12385e;fill-opacity:1;fill-rule:evenodd;stroke:none"
             id="path182" /></g><g
           id="g184"
           transform="translate(134.6768,173.1758)"><path
             d="M 0,0 C -0.097,0.071 -0.193,0.145 -0.288,0.222 M 4.281,16.065 9.397,10.949 C 12.2,8.146 12.211,3.566 9.43,0.749 L 9.397,0.717 V 0.716 L 9.264,0.587 V 0.586 L 9.128,0.461 V 0.46 L 8.99,0.34 V 0.339 L 8.85,0.222 8.707,0.109 V 0.108 L 8.561,-0.001 8.414,-0.106 8.265,-0.207 8.114,-0.304 7.96,-0.397 7.806,-0.485 7.649,-0.57 7.491,-0.65 7.331,-0.726 7.17,-0.798 V -0.799 L 7.007,-0.866 V -0.868 L 6.843,-0.931 6.678,-0.99 6.511,-1.046 6.344,-1.097 6.175,-1.145 6.006,-1.189 5.836,-1.227 5.665,-1.262 H 5.664 L 5.493,-1.293 5.321,-1.32 5.149,-1.342 V -1.343 L 4.976,-1.361 V -1.362 L 4.803,-1.375 4.802,-1.376 4.629,-1.385 V -1.387 L 4.455,-1.392 V -1.393 L 4.281,-1.394 c -0.175,0 -0.348,0.006 -0.521,0.018 v 10e-4 c -0.174,0.011 -0.347,0.03 -0.519,0.055 v 0.001 l -0.173,0.026 v 0 l -0.171,0.031 -0.171,0.035 v 0.001 l -0.171,0.037 v 0.001 l -0.169,0.043 v 0.001 l -0.168,0.047 v 0 c -0.169,0.05 -0.335,0.104 -0.499,0.166 V -0.93 C 1.609,-0.889 1.5,-0.846 1.392,-0.799 v 0.001 l -0.161,0.072 v 0 l -0.16,0.076 v 0.001 L 0.912,-0.57 v 0.001 l -0.156,0.084 v 0 l -0.155,0.088 v 0.001 c -0.103,0.06 -0.204,0.124 -0.304,0.189 v 0.001 l -0.149,0.1 v 0.001 L 0,-0.001 V 0 l -0.288,0.222 v 0 L -0.429,0.339 V 0.34 l -0.138,0.12 v 0.001 l -0.135,0.125 v 0.001 l -0.134,0.129 v 0.001 h -0.001 c -2.814,2.813 -2.813,7.417 0,10.231 z"
             style="fill:#12385e;fill-opacity:1;fill-rule:evenodd;stroke:none"
             id="path186" /></g><g
           id="g188"
           transform="translate(157.5095,206.4395)"><path
             d="M 0,0 V 0 C 3.844,1.029 7.832,-1.272 8.862,-5.117 L 9.946,-9.165 -1.87,-20.982 -5.117,-8.862 c -0.663,2.476 0.057,5.011 1.679,6.778 l 0.431,0.429 C -2.178,-0.891 -1.159,-0.31 0,0"
             style="fill:#12385e;fill-opacity:1;fill-rule:evenodd;stroke:none"
             id="path190" /></g></g></g><text
       transform="matrix(0.96797082,0,0,-1,255.2754,148.4687)"
       style="font-variant:normal;font-weight:bold;font-stretch:normal;font-size:7.54px;font-family:'Open Sans';-inkscape-font-specification:OpenSans-Bold;writing-mode:lr-tb;fill:#7d7e7e;fill-opacity:1;fill-rule:nonzero;stroke:none"
       id="text194"><tspan
         x="0 4.3656602"
         y="0"
         sodipodi:role="line"
         id="tspan192">TM</tspan></text><g
       id="g196"><g
         id="g198"
         clip-path="url(#clipPath202)"><g
           id="g204"><g
             id="g206" /><g
             id="g216"><g
               clip-path="url(#clipPath210)"
               opacity="0"
               id="g214"><path
                 d="M 288,1.057 H -0.099 V 288 H 288 Z"
                 style="fill:none;stroke:#231f20;stroke-width:1;stroke-linecap:butt;stroke-linejoin:miter;stroke-miterlimit:10;stroke-dasharray:none;stroke-opacity:1"
                 id="path212" /></g></g></g></g></g></g></svg>
